<svg xmlns="http://www.w3.org/2000/svg" version="1.1" xmlns:xlink="http://www.w3.org/1999/xlink" xmlns:svgjs="http://svgjs.dev/svgjs" width="1500" height="976" viewBox="0 0 1500 976"><g transform="matrix(1,0,0,1,-8.05698319510418,-25.884653179595603)"><svg viewBox="0 0 398 259" data-background-color="#ffffff" preserveAspectRatio="xMidYMid meet" height="976" width="1500" xmlns="http://www.w3.org/2000/svg" xmlns:xlink="http://www.w3.org/1999/xlink"><g id="tight-bounds" transform="matrix(1,0,0,1,2.137786207767647,6.869625843163064)"><svg viewBox="0 0 395.52 245.26074831367382" height="245.26074831367382" width="395.52"><g><svg viewBox="0 0 545.4213124997711 338.21409600000004" height="245.26074831367382" width="395.52"><g transform="matrix(1,0,0,1,211.9887543602363,45.507048000000026)"><svg viewBox="0 0 333.4325581395348 247.2" height="247.2" width="333.4325581395348"><g id="textblocktransform"><svg viewBox="0 0 333.4325581395348 247.2" height="247.2" width="333.4325581395348" id="textblock"><g><svg viewBox="0 0 333.4325581395348 247.2" height="247.2" width="333.4325581395348"><g transform="matrix(1,0,0,1,0,0)"><svg width="333.4325581395348" viewBox="10.5 -34.1 104.4 73.45000000000002" height="247.2" data-palette-color="#ffffff"><svg></svg><svg></svg><g class="wordmark-text-0" data-fill-palette-color="primary" id="text-0"><path transform="translate(6.95,0)" d="M3.55 0l1.8-34.1h5.35l7.7 20.3c0.433 1.167 0.833 2.24 1.2 3.22 0.367 0.987 0.683 1.863 0.95 2.63v0c0.333 0.867 0.617 1.667 0.85 2.4v0h0.1c0.2-0.733 0.45-1.533 0.75-2.4v0c0.267-0.767 0.567-1.643 0.9-2.63 0.333-0.98 0.733-2.053 1.2-3.22v0l7.85-20.3h5.35l1.75 34.1h-4.25l-0.85-18.75c-0.067-1.633-0.117-3.017-0.15-4.15-0.033-1.133-0.05-2.067-0.05-2.8v0-2.1h-0.1c-0.2 0.5-0.45 1.183-0.75 2.05v0c-0.267 0.733-0.607 1.673-1.02 2.82-0.42 1.153-0.93 2.547-1.53 4.18v0l-7.05 18.75h-4.25l-7.1-18.75c-0.633-1.6-1.15-2.977-1.55-4.13-0.4-1.147-0.733-2.087-1-2.82v0c-0.3-0.867-0.533-1.567-0.7-2.1v0h-0.1c0.033 0.533 0.067 1.233 0.1 2.1v0c0.033 1.4-0.017 3.717-0.15 6.95v0l-1 18.75zM64-3.95l0.75 3.35c-0.767 0.233-1.557 0.433-2.37 0.6-0.82 0.167-1.72 0.317-2.7 0.45-0.987 0.133-2.013 0.2-3.08 0.2v0c-1.667 0-3.217-0.233-4.65-0.7-1.433-0.467-2.683-1.217-3.75-2.25-1.067-1.033-1.907-2.377-2.52-4.03-0.62-1.647-0.93-3.67-0.93-6.07v0c0-2.167 0.3-4.077 0.9-5.73 0.6-1.647 1.427-3.03 2.48-4.15 1.047-1.113 2.28-1.953 3.7-2.52 1.413-0.567 2.953-0.85 4.62-0.85v0c1.633 0 3.05 0.317 4.25 0.95 1.2 0.633 2.193 1.49 2.98 2.57 0.78 1.087 1.363 2.357 1.75 3.81 0.38 1.447 0.57 2.97 0.57 4.57v0l-0.75 2.2h-16.15c0 1.033 0.133 2.067 0.4 3.1 0.267 1.033 0.727 1.967 1.38 2.8 0.647 0.833 1.497 1.507 2.55 2.02 1.047 0.52 2.353 0.78 3.92 0.78v0c1 0 1.917-0.06 2.75-0.18 0.833-0.113 1.56-0.247 2.18-0.4 0.613-0.147 1.187-0.32 1.72-0.52zM49.25-14.75h12.6c0-0.233-0.05-0.75-0.15-1.55-0.1-0.8-0.333-1.633-0.7-2.5-0.367-0.867-0.933-1.643-1.7-2.33-0.767-0.68-1.783-1.02-3.05-1.02v0c-1.4 0-2.55 0.29-3.45 0.87-0.9 0.587-1.617 1.28-2.15 2.08-0.533 0.8-0.9 1.617-1.1 2.45-0.2 0.833-0.3 1.5-0.3 2zM73.3-32.15l4-0.5v7.5h7.25v3.25h-7.25v13.35c0 1.1 0.027 2.017 0.08 2.75 0.047 0.733 0.153 1.317 0.32 1.75 0.167 0.433 0.4 0.74 0.7 0.92 0.3 0.187 0.683 0.28 1.15 0.28v0c1.267-0.033 2.733-0.5 4.4-1.4v0l1.2 3.05c-1.1 0.733-2.123 1.227-3.07 1.48-0.953 0.247-1.897 0.37-2.83 0.37v0c-2.2 0-3.74-0.627-4.62-1.88-0.887-1.247-1.33-3.32-1.33-6.22v0-14.45h-4.6v-3.25h4.6zM103.65-5.85v-5.7c-0.667 0.033-1.3 0.067-1.9 0.1-0.6 0.033-1.19 0.073-1.77 0.12-0.587 0.053-1.113 0.113-1.58 0.18v0c-2.4 0.3-4.1 0.823-5.1 1.57-1 0.753-1.5 1.83-1.5 3.23v0c0 1.167 0.36 2.04 1.08 2.62 0.713 0.587 1.653 0.88 2.82 0.88v0c1.6 0 3.027-0.277 4.28-0.83 1.247-0.547 2.47-1.27 3.67-2.17zM104.1 0.4l-0.5-2.75c-1.567 0.9-3.023 1.623-4.37 2.17-1.353 0.553-2.813 0.83-4.38 0.83v0c-2.233 0-4.007-0.543-5.32-1.63-1.32-1.08-1.98-2.87-1.98-5.37v0c0-1.3 0.333-2.433 1-3.4 0.667-0.967 1.543-1.777 2.63-2.43 1.08-0.647 2.303-1.153 3.67-1.52 1.367-0.367 2.767-0.6 4.2-0.7v0c0.6-0.067 1.383-0.127 2.35-0.18 0.967-0.047 1.717-0.087 2.25-0.12v0c0-1.167-0.033-2.207-0.1-3.12-0.067-0.92-0.267-1.707-0.6-2.36-0.333-0.647-0.823-1.137-1.47-1.47-0.653-0.333-1.58-0.5-2.78-0.5v0c-0.967 0-1.9 0.057-2.8 0.17-0.9 0.12-1.7 0.247-2.4 0.38v0c-0.833 0.167-1.6 0.35-2.3 0.55v0l-0.8-3.45c0.833-0.2 1.733-0.383 2.7-0.55v0c0.833-0.167 1.8-0.31 2.9-0.43 1.1-0.113 2.283-0.17 3.55-0.17v0c1.7 0 3.077 0.25 4.13 0.75 1.047 0.5 1.863 1.173 2.45 2.02 0.58 0.853 0.98 1.82 1.2 2.9 0.213 1.087 0.32 2.23 0.32 3.43v0 12c0 0.467 0.01 0.957 0.03 1.47 0.013 0.52 0.047 1.03 0.1 1.53 0.047 0.5 0.103 1.017 0.17 1.55v0z" fill="#ffffff" fill-rule="nonzero" stroke="none" stroke-width="1" stroke-linecap="butt" stroke-linejoin="miter" stroke-miterlimit="10" stroke-dasharray="" stroke-dashoffset="0" font-family="none" font-weight="none" font-size="none" text-anchor="none" style="mix-blend-mode: normal" data-fill-palette-color="primary" opacity="1"></path><path transform="translate(29.58,38.7)" d="M12.25 0l-11.35-34.1h4.25l9.8 30.1h0.05l9.65-30.1h4.25l-11.35 34.1zM33.4 0v-25.2l4-0.45v25.65zM32.75-32.35v0c0-0.767 0.257-1.407 0.77-1.92 0.52-0.52 1.163-0.78 1.93-0.78v0c0.8 0 1.477 0.26 2.03 0.78 0.547 0.513 0.82 1.153 0.82 1.92v0c0 0.767-0.273 1.407-0.82 1.92-0.553 0.52-1.23 0.78-2.03 0.78v0c-0.767 0-1.41-0.26-1.93-0.78-0.513-0.513-0.77-1.153-0.77-1.92zM58.9-24.6l-0.7 3.55c-1.4-0.433-2.64-0.727-3.72-0.88-1.087-0.147-2.08-0.22-2.98-0.22v0c-1.167 0-2.14 0.283-2.92 0.85-0.787 0.567-1.18 1.3-1.18 2.2v0c0.033 0.8 0.383 1.483 1.05 2.05 0.667 0.567 1.44 1.073 2.32 1.52 0.887 0.453 1.873 0.947 2.96 1.48 1.08 0.533 2.093 1.133 3.04 1.8 0.953 0.667 1.73 1.467 2.33 2.4 0.6 0.933 0.917 2.05 0.95 3.35v0c-0.033 1.4-0.34 2.557-0.92 3.47-0.587 0.92-1.337 1.653-2.25 2.2-0.92 0.553-1.913 0.94-2.98 1.16-1.067 0.213-2.067 0.32-3 0.32v0c-1.2 0-2.443-0.067-3.73-0.2-1.28-0.133-2.653-0.417-4.12-0.85v0l0.75-3.6c1.5 0.4 2.867 0.69 4.1 0.87 1.233 0.187 2.25 0.28 3.05 0.28v0c0.6 0 1.193-0.067 1.78-0.2 0.58-0.133 1.103-0.327 1.57-0.58 0.467-0.247 0.84-0.57 1.12-0.97 0.287-0.4 0.43-0.85 0.43-1.35v0c-0.033-0.933-0.35-1.727-0.95-2.38-0.6-0.647-1.373-1.23-2.32-1.75-0.953-0.513-1.973-1.03-3.06-1.55-1.08-0.513-2.093-1.113-3.04-1.8-0.953-0.68-1.747-1.497-2.38-2.45-0.633-0.947-0.95-2.12-0.95-3.52v0c0-1 0.257-1.893 0.77-2.68 0.52-0.78 1.187-1.43 2-1.95 0.82-0.513 1.723-0.913 2.71-1.2 0.98-0.28 1.937-0.42 2.87-0.42v0c0.967 0 2.05 0.073 3.25 0.22 1.2 0.153 2.583 0.43 4.15 0.83z" fill="#ffffff" fill-rule="nonzero" stroke="none" stroke-width="1" stroke-linecap="butt" stroke-linejoin="miter" stroke-miterlimit="10" stroke-dasharray="" stroke-dashoffset="0" font-family="none" font-weight="none" font-size="none" text-anchor="none" style="mix-blend-mode: normal" data-fill-palette-color="primary" opacity="1"></path></g></svg></g></svg></g></svg></g></svg></g><g><svg viewBox="0 0 185.07169824860839 338.21409600000004" height="338.21409600000004" width="185.07169824860839"><g><svg xmlns="http://www.w3.org/2000/svg" xmlns:xlink="http://www.w3.org/1999/xlink" version="1.1" x="0" y="0" viewBox="29.640379159777567 12.347 41.77236687646001 76.33800000000001" enable-background="new 0 0 100 100" xml:space="preserve" height="338.21409600000004" width="185.07169824860839" class="icon-icon-0" data-fill-palette-color="accent" id="icon-0"><path d="M52.243 49.698L50.14 48.642C42.464 44.908 38.147 41.587 35.723 37.61H46.855A1.5 1.5 0 1 0 46.855 34.61H34.288C33.684 32.966 33.299 31.191 33.056 29.229H61.785A1.5 1.5 0 1 0 61.785 26.229H32.789C32.628 23.446 32.635 20.308 32.645 16.684L32.65 13.848A1.5 1.5 0 1 0 29.65 13.848L29.645 16.676C29.622 25.131 29.611 31.345 31.817 36.58 31.841 36.654 31.871 36.724 31.905 36.792 34.265 42.213 39.063 46.59 48.81 51.332L50.912 52.389C63.071 58.305 66.801 63.183 67.93 71.279H49.736A1.5 1.5 0 1 0 49.736 74.279H68.232C68.357 76.155 68.399 78.199 68.41 80.445H32.643C32.653 78.192 32.695 76.153 32.818 74.279H42.402A1.5 1.5 0 1 0 42.402 71.279H33.114C33.429 68.995 33.947 66.97 34.803 65.113H60.213A1.5 1.5 0 0 0 60.213 62.113H36.594C38.124 60.066 40.241 58.173 43.174 56.258A1.5 1.5 0 0 0 41.535 53.746C29.581 61.548 29.604 69.649 29.645 84.357L29.65 87.185A1.5 1.5 0 1 0 32.65 87.185L32.645 84.348 32.643 83.445H68.41L68.408 84.347 68.403 87.185A1.5 1.5 0 0 0 71.403 87.185L71.408 84.356C71.457 66.984 71.479 59.057 52.243 49.698" fill="#ffffff" data-fill-palette-color="accent"></path><path d="M37.95 20.847H68.379C68.389 20.847 68.398 20.845 68.407 20.844 68.377 26.602 68.136 30.955 66.805 34.61H57.856A1.5 1.5 0 1 0 57.856 37.61H65.371C63.967 39.904 61.92 41.974 58.937 44.06A1.5 1.5 0 1 0 60.655 46.518C71.469 38.955 71.448 31.042 71.407 16.677L71.402 13.847A1.5 1.5 0 1 0 68.402 13.847L68.407 16.685 68.409 17.85C68.398 17.85 68.388 17.847 68.378 17.847H37.95A1.5 1.5 0 1 0 37.95 20.847" fill="#ffffff" data-fill-palette-color="accent"></path></svg></g></svg></g></svg></g><defs></defs></svg><rect width="395.52" height="245.26074831367382" fill="none" stroke="none" visibility="hidden"></rect></g></svg></g></svg>